<svg xmlns="http://www.w3.org/2000/svg" width="64" height="64" viewBox="0 0 64 64">
  <g fill="none" stroke="#d7eef6" stroke-width="1.35" opacity="1">
    <rect x="3" y="3" width="26" height="26" rx="1.2"/>
    <rect x="35" y="3" width="26" height="26" rx="1.2"/>
    <rect x="3" y="35" width="26" height="26" rx="1.2"/>
    <rect x="35" y="35" width="26" height="26" rx="1.2"/>
    <path d="M16 3 V29 M3 16 H29 M48 3 V29 M35 16 H61 M16 35 V61 M3 48 H29 M48 35 V61 M35 48 H61"/>
    <path d="M9 9 L23 23 M23 9 L9 23 M41 9 L55 23 M55 9 L41 23 M9 41 L23 55 M23 41 L9 55 M41 41 L55 55 M55 41 L41 55"/>
    <circle cx="16" cy="16" r="2.8"/>
    <circle cx="48" cy="16" r="2.8"/>
    <circle cx="16" cy="48" r="2.8"/>
    <circle cx="48" cy="48" r="2.8"/>
  </g>
</svg>
